<svg width="149" height="220" viewBox="0 0 149 220" fill="none" xmlns="http://www.w3.org/2000/svg">
<g filter="url(#filter0_d_7_2076)">
<path d="M95.7803 21L96.7681 21.1555L94.954 20.4367L95.7803 21ZM84.6633 91.623L83.6754 91.4675L83.4935 92.623H84.6633V91.623ZM22 129.232L21.1737 128.668L20.0977 130.247L22.008 130.232L22 129.232ZM63.0589 128.905L64.0453 129.069L64.2411 127.895L63.0509 127.905L63.0589 128.905ZM51.3211 199.263L50.3347 199.099L52.1424 199.834L51.3211 199.263ZM126.095 91.623L126.916 92.1935L128.007 90.623H126.095V91.623ZM94.7925 20.8445L83.6754 91.4675L85.6511 91.7785L96.7681 21.1555L94.7925 20.8445ZM22.8263 129.795L96.6066 21.5633L94.954 20.4367L21.1737 128.668L22.8263 129.795ZM63.0509 127.905L21.992 128.232L22.008 130.232L63.0669 129.905L63.0509 127.905ZM52.3075 199.428L64.0453 129.069L62.0725 128.74L50.3347 199.099L52.3075 199.428ZM125.274 91.0525L50.4998 198.693L52.1424 199.834L126.916 92.1935L125.274 91.0525ZM84.6633 92.623H126.095V90.623H84.6633V92.623Z" fill="#62F0AC"/>
</g>
<defs>
<filter id="filter0_d_7_2076" x="0.0976562" y="0.436737" width="147.91" height="219.397" filterUnits="userSpaceOnUse" color-interpolation-filters="sRGB">
<feFlood flood-opacity="0" result="BackgroundImageFix"/>
<feColorMatrix in="SourceAlpha" type="matrix" values="0 0 0 0 0 0 0 0 0 0 0 0 0 0 0 0 0 0 127 0" result="hardAlpha"/>
<feOffset/>
<feGaussianBlur stdDeviation="10"/>
<feComposite in2="hardAlpha" operator="out"/>
<feColorMatrix type="matrix" values="0 0 0 0 0.384514 0 0 0 0 0.941667 0 0 0 0 0.674233 0 0 0 0.5 0"/>
<feBlend mode="normal" in2="BackgroundImageFix" result="effect1_dropShadow_7_2076"/>
<feBlend mode="normal" in="SourceGraphic" in2="effect1_dropShadow_7_2076" result="shape"/>
</filter>
</defs>
</svg>
